<?xml version="1.0" standalone="no"?><svg xmlns="http://www.w3.org/2000/svg" viewBox="0 0 1440 320"><path fill="#83b4b6" fill-opacity="1" d="M0,192L40,192C80,192,160,192,240,176C320,160,400,128,480,122.7C560,117,640,139,720,160C800,181,880,203,960,197.3C1040,192,1120,160,1200,149.3C1280,139,1360,149,1400,154.7L1440,160L1440,320L1400,320C1360,320,1280,320,1200,320C1120,320,1040,320,960,320C880,320,800,320,720,320C640,320,560,320,480,320C400,320,320,320,240,320C160,320,80,320,40,320L0,320Z"></path></svg>